<svg id="Warstwa_1" data-name="Warstwa 1" xmlns="http://www.w3.org/2000/svg" viewBox="0 0 100 100"><defs><style>.cls-1{fill:#fff;stroke:#24b1f2;}.cls-1,.cls-2{stroke-linecap:round;stroke-linejoin:round;stroke-width:4px;}.cls-2{fill:#ffdc85;stroke:#fa8200;}</style></defs><path class="cls-1" d="M77.287,62.42926c-.24,8.24-7.42016,14.59009-15.67016,14.59009h-30.49c-10.97,0-20.59986-8.14-21.52991-19.07007a20.93323,20.93323,0,0,1,31.88-19.62989,12.94566,12.94566,0,0,1,8.77-4.62011A22.1804,22.1804,0,0,0,71.077,54.49933a21.65778,21.65778,0,0,0,4.11987-.16993A15.0268,15.0268,0,0,1,77.287,62.42926Z"/><path class="cls-2" d="M89.68688,46.06939a22.00989,22.00989,0,0,1-14.49,8.26,21.65778,21.65778,0,0,1-4.11987.16993,22.1804,22.1804,0,0,1-20.83008-20.8c-.02-.18994-.02-.37989-.03-.56995a22.09645,22.09645,0,0,1,22.08008-22.79,22.33306,22.33306,0,0,1,6.53.9801,1.19162,1.19162,0,0,1,.13989,2.23,16.11006,16.11006,0,0,0,6.14991,31,16.35566,16.35566,0,0,0,3.38012-.3601A1.18427,1.18427,0,0,1,89.68688,46.06939Z"/></svg>