<svg id="Warstwa_1" data-name="Warstwa 1" xmlns="http://www.w3.org/2000/svg" viewBox="0 0 100 100"><defs><style>.cls-1{fill:#24b1f2;}.cls-1,.cls-2{stroke:#24b1f2;stroke-linecap:round;stroke-linejoin:round;stroke-width:4px;}.cls-2{fill:#fff;}</style></defs><path class="cls-1" d="M92.69625,48.81771c-.24,8.24-7.42016,14.59009-15.67016,14.59009h-30.49c-10.97,0-20.59986-8.14-21.52991-19.07007a20.93322,20.93322,0,0,1,31.88-19.62988,13.02119,13.02119,0,0,1,23.02,8.34985c0,.15015,0,.29-.01.44007A15.05664,15.05664,0,0,1,92.69625,48.81771Z"/><path class="cls-2" d="M76.287,67.42993c-.24,8.24-7.42016,14.59009-15.67016,14.59009h-30.49C19.15685,82.02,9.527,73.88,8.59692,62.95a20.93322,20.93322,0,0,1,31.88-19.62988,13.02118,13.02118,0,0,1,23.02,8.34985c0,.15015,0,.29-.01.44007A15.05664,15.05664,0,0,1,76.287,67.42993Z"/><path class="cls-2" d="M28.35878,75.07326H35.763a0,0,0,0,1,0,0v7.4042a7.40419,7.40419,0,0,1-7.40419,7.40419h0a7.40419,7.40419,0,0,1-7.40419-7.40419v0A7.40419,7.40419,0,0,1,28.35878,75.07326Z" transform="translate(-50.01428 44.2098) rotate(-45.00001)"/><path class="cls-2" d="M56.45236,71.15326h7.4042a0,0,0,0,1,0,0v7.4042a7.40419,7.40419,0,0,1-7.40419,7.40419h0a7.40419,7.40419,0,0,1-7.40419-7.40419v0A7.40419,7.40419,0,0,1,56.45236,71.15326Z" transform="translate(-39.01399 62.92679) rotate(-44.99999)"/></svg>