<svg id="Warstwa_1" data-name="Warstwa 1" xmlns="http://www.w3.org/2000/svg" viewBox="0 0 100 100"><defs><style>.cls-1{fill:#ffdc85;stroke:#fa8200;}.cls-1,.cls-2{stroke-linecap:round;stroke-linejoin:round;stroke-width:4px;}.cls-2{fill:#fff;stroke:#24b1f2;}</style></defs><circle class="cls-1" cx="66.20751" cy="38.39436" r="17.13698"/><line class="cls-1" x1="66.20751" y1="20.40053" x2="66.20751" y2="10.11834"/><line class="cls-1" x1="66.20751" y1="66.67037" x2="66.20751" y2="56.38818"/><line class="cls-1" x1="84.20133" y1="38.39436" x2="94.48352" y2="38.39436"/><line class="cls-1" x1="37.93149" y1="38.39436" x2="48.21368" y2="38.39436"/><line class="cls-1" x1="78.93106" y1="51.11792" x2="86.20167" y2="58.38852"/><line class="cls-1" x1="46.21335" y1="18.4002" x2="53.48395" y2="25.6708"/><line class="cls-1" x1="79.78791" y1="25.6708" x2="87.05852" y2="18.4002"/><line class="cls-1" x1="47.07019" y1="58.38852" x2="54.3408" y2="51.11792"/><path class="cls-2" d="M77.285,62.42993c-.24,8.24-7.42017,14.59009-15.67017,14.59009h-30.49C20.15491,77.02,10.525,68.88,9.595,57.95a20.93322,20.93322,0,0,1,31.88-19.62988,13.02118,13.02118,0,0,1,23.02,8.34985c0,.15015,0,.29-.01.44007A15.05665,15.05665,0,0,1,77.285,62.42993Z"/><path class="cls-2" d="M28.45132,75.07326h7.4042a0,0,0,0,1,0,0v7.4042a7.40419,7.40419,0,0,1-7.40419,7.40419h0a7.40419,7.40419,0,0,1-7.40419-7.40419v0a7.40419,7.40419,0,0,1,7.40419-7.40419Z" transform="translate(-49.98718 44.27523) rotate(-45.00001)"/><path class="cls-2" d="M56.5449,71.15326h7.4042a0,0,0,0,1,0,0v7.4042a7.40419,7.40419,0,0,1-7.40419,7.40419h0a7.40419,7.40419,0,0,1-7.40419-7.40419v0A7.40419,7.40419,0,0,1,56.5449,71.15326Z" transform="translate(-38.98689 62.99222) rotate(-44.99999)"/></svg>