<svg id="Warstwa_1" data-name="Warstwa 1" xmlns="http://www.w3.org/2000/svg" viewBox="0 0 100 100"><defs><style>.cls-1{fill:#fff;stroke:#24b1f2;}.cls-1,.cls-2{stroke-linecap:round;stroke-linejoin:round;stroke-width:4px;}.cls-2{fill:#ffdc85;stroke:#fa8200;}</style></defs><path class="cls-1" d="M77.28273,62.42926c-.24023,8.24-7.42017,14.59009-15.67017,14.59009h-30.49c-10.97,0-20.60009-8.14-21.53-19.07007A20.93332,20.93332,0,0,1,41.47267,38.31939a12.94564,12.94564,0,0,1,8.77-4.62011A22.18969,22.18969,0,0,0,71.08254,54.49933a21.51985,21.51985,0,0,0,4.1101-.16993A15.029,15.029,0,0,1,77.28273,62.42926Z"/><path class="cls-1" d="M28.45132,75.07326h7.4042a0,0,0,0,1,0,0v7.4042a7.40419,7.40419,0,0,1-7.40419,7.40419h0a7.40419,7.40419,0,0,1-7.40419-7.40419v0a7.40419,7.40419,0,0,1,7.40419-7.40419Z" transform="translate(-49.98718 44.27523) rotate(-45.00001)"/><path class="cls-1" d="M56.5449,71.15326h7.4042a0,0,0,0,1,0,0v7.4042a7.40419,7.40419,0,0,1-7.40419,7.40419h0a7.40419,7.40419,0,0,1-7.40419-7.40419v0A7.40419,7.40419,0,0,1,56.5449,71.15326Z" transform="translate(-38.98689 62.99222) rotate(-44.99999)"/><path class="cls-2" d="M89.68263,46.06939a22.00989,22.00989,0,0,1-14.49,8.26,21.51985,21.51985,0,0,1-4.1101.16993,22.18969,22.18969,0,0,1-20.83985-20.8c-.02-.18994-.02-.37989-.03-.56995A22.1103,22.1103,0,0,1,78.82253,11.31939a1.19158,1.19158,0,0,1,.14013,2.23,16.10866,16.10866,0,0,0,9.53,30.6399A1.18431,1.18431,0,0,1,89.68263,46.06939Z"/></svg>