<svg id="Warstwa_1" data-name="Warstwa 1" xmlns="http://www.w3.org/2000/svg" viewBox="0 0 100 100"><defs><style>.cls-1{fill:#24b1f2;}.cls-1,.cls-2{stroke:#24b1f2;}.cls-1,.cls-2,.cls-3{stroke-linecap:round;stroke-linejoin:round;stroke-width:4px;}.cls-2{fill:#fff;}.cls-3{fill:#ffdc85;stroke:#fa8200;}</style></defs><path class="cls-1" d="M92.69625,40.81771c-.24,8.24-7.42016,14.59009-15.67016,14.59009h-30.49c-10.97,0-20.59986-8.14-21.52991-19.07007a20.93322,20.93322,0,0,1,31.88-19.62988,13.02119,13.02119,0,0,1,23.02,8.34985c0,.15015,0,.29-.01.44007A15.05664,15.05664,0,0,1,92.69625,40.81771Z"/><path class="cls-2" d="M76.287,59.42993c-.24,8.24-7.42016,14.59009-15.67016,14.59009h-30.49C19.15685,74.02,9.527,65.88,8.59692,54.95a20.93322,20.93322,0,0,1,31.88-19.62988,13.02118,13.02118,0,0,1,23.02,8.34985c0,.15015,0,.29-.01.44007A15.05664,15.05664,0,0,1,76.287,59.42993Z"/><polygon class="cls-3" points="35.997 57.131 51.818 57.131 45.689 70.557 57.922 70.557 35.341 93.498 40.341 77.602 27.927 77.602 35.997 57.131"/></svg>