<svg id="Warstwa_1" data-name="Warstwa 1" xmlns="http://www.w3.org/2000/svg" viewBox="0 0 100 100"><defs><style>.cls-1{fill:#fff;stroke:#24b1f2;stroke-linecap:round;stroke-linejoin:round;stroke-width:4px;}</style></defs><path class="cls-1" d="M38.29349,45.759v8.482a4.36084,4.36084,0,0,0,2.18042,3.7766l7.34567,4.241a4.36084,4.36084,0,0,0,4.36084,0l7.34567-4.241a4.36084,4.36084,0,0,0,2.18042-3.7766V45.759a4.36084,4.36084,0,0,0-2.18042-3.7766l-7.34567-4.241a4.36084,4.36084,0,0,0-4.36084,0l-7.34567,4.241A4.36084,4.36084,0,0,0,38.29349,45.759Z"/><line class="cls-1" x1="50" y1="29.20702" x2="41.47002" y2="20.67704"/><line class="cls-1" x1="50.00001" y1="29.20702" x2="58.52999" y2="20.67704"/><line class="cls-1" x1="50" y1="70.79298" x2="41.47002" y2="79.32296"/><line class="cls-1" x1="50.00001" y1="70.79298" x2="58.52999" y2="79.32296"/><line class="cls-1" x1="31.95478" y1="39.66955" x2="20.31413" y2="42.83441"/><line class="cls-1" x1="31.95478" y1="39.66954" x2="28.78993" y2="28.02889"/><line class="cls-1" x1="68.04521" y1="60.33046" x2="71.21007" y2="71.97111"/><line class="cls-1" x1="68.04522" y1="60.33045" x2="79.68587" y2="57.16559"/><line class="cls-1" x1="67.94881" y1="39.50294" x2="71.00577" y2="27.8335"/><line class="cls-1" x1="67.94882" y1="39.50296" x2="79.61826" y2="42.55992"/><line class="cls-1" x1="32.05117" y1="60.49704" x2="20.38172" y2="57.44008"/><line class="cls-1" x1="32.05118" y1="60.49706" x2="28.99421" y2="72.1665"/><line class="cls-1" x1="50" y1="37.15711" x2="50" y2="17.0609"/><line class="cls-1" x1="50" y1="62.84289" x2="50" y2="82.9391"/><line class="cls-1" x1="38.85511" y1="43.61983" x2="21.41375" y2="33.63508"/><line class="cls-1" x1="61.14509" y1="56.3803" x2="78.58623" y2="66.36494"/><line class="cls-1" x1="61.08451" y1="43.51741" x2="78.43351" y2="33.37114"/><line class="cls-1" x1="38.91616" y1="56.48217" x2="21.56645" y2="66.62884"/></svg>