<svg viewBox="0 0 100 100" xmlns="http://www.w3.org/2000/svg"><g fill="none" stroke="white" stroke-linecap="round" stroke-linejoin="round" stroke-width="4"><path d="m83.347 38.39a17.11933 17.11933 0 0 1 -8.78027 14.96 15.10709 15.10709 0 0 0 -10.07984-6.24c.01-.15.01-.28992.01-.44007a13.026 13.026 0 0 0 -14.78999-12.90993 17.14008 17.14008 0 0 1 33.6401 4.63z"/><path  d="m66.20751 20.40053v-10.28219"/><path  d="m84.20133 38.39436h10.28219"/><path  d="m78.93106 51.11792 7.27061 7.2706"/><path  d="m46.21335 18.4002 7.2706 7.2706"/><path  d="m79.78791 25.6708 7.27061-7.2706"/><path  d="m77.287 62.42993c-.24 8.24-7.42016 14.59009-15.67016 14.59009h-30.49c-10.97 0-20.59986-8.14-21.52991-19.07007a20.93322 20.93322 0 0 1 31.88-19.62988 13.02118 13.02118 0 0 1 23.02 8.34985c0 .15015 0 .29-.01.44007a15.04545 15.04545 0 0 1 12.8 15.31994z"/></g></svg>