<svg viewBox="0 0 100 100" xmlns="http://www.w3.org/2000/svg"><g fill="none" stroke="white" stroke-linecap="round" stroke-linejoin="round" stroke-width="4"><path d="m77.287 62.42534c-.24 8.24-7.42016 14.59-15.67016 14.59h-30.49c-10.97 0-20.59986-8.14-21.52991-19.06995a20.93352 20.93352 0 0 1 31.88-19.63013 12.98438 12.98438 0 0 1 8.23-4.55993c.17994-.02.35987-.04993.54-.05994q.59987-.06006 1.23-.06006a13.02321 13.02321 0 0 1 13.02 13.03c0 .1499 0 .29-.01.43994a15.10669 15.10669 0 0 1 10.07984 6.24c.22021.32007.44018.65.64013.99a14.96376 14.96376 0 0 1 2.0801 8.09007z"/><path d="m89.68688 46.07524a22.13286 22.13286 0 0 1 -14.48 8.26c-.2-.34-.41992-.66992-.64013-.99a15.10669 15.10669 0 0 0 -10.07984-6.24c.01-.1499.01-.29.01-.43994a13.02321 13.02321 0 0 0 -13.02-13.03q-.62988 0-1.23.06006c-.02-.19006-.02-.38013-.03-.57007a22.11057 22.11057 0 0 1 28.61011-21.8 1.18445 1.18445 0 0 1 .13989 2.22 16.11006 16.11006 0 0 0 6.14991 31 15.56284 15.56284 0 0 0 3.38012-.35986 1.19021 1.19021 0 0 1 1.18994 1.88981z"/></g></svg>