<svg viewBox="0 0 100 100" xmlns="http://www.w3.org/2000/svg"><g fill="none" stroke="white" stroke-linecap="round" stroke-linejoin="round" stroke-width="4"><path  d="m92.69512 48.82007c-.24 8.24-7.41993 14.58984-15.66993 14.58984h-1.16019a15.07538 15.07538 0 0 0 -12.37984-11.29991c.01-.15.01-.28992.01-.44007a13.02118 13.02118 0 0 0 -23.02-8.34985 20.9886 20.9886 0 0 0 -15.46-2.67017 20.92634 20.92634 0 0 1 31.8699-15.93991 13.02125 13.02125 0 0 1 23.02 8.3501c0 .1499 0 .28992-.01.43994a15.0565 15.0565 0 0 1 12.80006 15.32003z"/><path  d="m76.2852 67.42993c-.2402 8.23999-7.4202 14.59007-15.6702 14.59007h-30.49c-10.97 0-20.59986-8.14-21.53-19.07007a20.92718 20.92718 0 0 1 16.42017-22.3 20.9886 20.9886 0 0 1 15.46 2.67017 13.02118 13.02118 0 0 1 23.02 8.34985c0 .15015 0 .29-.01.44007a15.07538 15.07538 0 0 1 12.37983 11.29989 15.25191 15.25191 0 0 1 .4202 4.02002z"/></g></svg>