<svg viewBox="0 0 100 100" xmlns="http://www.w3.org/2000/svg"><g fill="none" stroke="white" stroke-linecap="round" stroke-linejoin="round" stroke-width="4"><path  d="m92.69331 48.82007c-.24 8.24-7.42016 14.58984-15.67016 14.58984h-1.15992a15.07538 15.07538 0 0 0 -12.37988-11.29991c.00977-.15.00977-.28992.00977-.44007a13.02118 13.02118 0 0 0 -23.02-8.34985 20.9886 20.9886 0 0 0 -15.46-2.67017 20.92654 20.92654 0 0 1 31.87013-15.93991 13.02125 13.02125 0 0 1 23.02 8.3501c0 .1499 0 .28992-.01.43994a15.0567 15.0567 0 0 1 12.80006 15.32003z"/><path  d="m76.28315 67.42993c-.22 7.4-6.02978 13.28-13.18994 14.4a7.38444 7.38444 0 0 0 -1.40991-8.50989l-5.23-5.2301-5.24 5.2301a7.403 7.403 0 0 0 -1.31006 8.7h-14.16012a7.316 7.316 0 0 0 -2.14991-4.78l-5.23-5.23-5.24 5.23a7.27333 7.27333 0 0 0 -1.8 2.95 20.83516 20.83516 0 1 1 19.14989-36.86997 13.02118 13.02118 0 0 1 23.02 8.34985c0 .15015 0 .29-.00977.44007a15.07538 15.07538 0 0 1 12.3799 11.29992 15.25188 15.25188 0 0 1 .41992 4.02002z"/><path  d="m33.59321 87.71a7.40491 7.40491 0 0 1 -12.63989-5.23 7.132 7.132 0 0 1 .36987-2.29 7.27333 7.27333 0 0 1 1.8-2.95l5.24-5.23 5.23 5.23a7.41433 7.41433 0 0 1 0 10.47z"/><path  d="m63.09321 81.83a7.41593 7.41593 0 0 1 -11.87988 1.96 7.39912 7.39912 0 0 1 0-10.47l5.24-5.2301 5.23 5.2301a7.38444 7.38444 0 0 1 1.40988 8.51z"/></g></svg>