<svg viewBox="0 0 100 100" xmlns="http://www.w3.org/2000/svg"><g fill="none" stroke="white" stroke-linecap="round" stroke-linejoin="round" stroke-width="4"><path d="m83.34255 38.39a17.11911 17.11911 0 0 1 -8.78 14.96 15.10712 15.10712 0 0 0 -10.07984-6.24c.01-.15.01-.28992.01-.44007a13.02311 13.02311 0 0 0 -13.02004-13.02993 12.7785 12.7785 0 0 0 -1.76.12 17.13425 17.13425 0 0 1 33.62989 4.63z"/><path d="m66.20751 20.40053v-10.28219"/><path d="m84.20133 38.39436h10.28219"/><path  d="m78.93106 51.11792 7.27061 7.2706"/><path  d="m46.21335 18.4002 7.2706 7.2706"/><path  d="m79.78791 25.6708 7.27061-7.2706"/><path d="m77.28273 62.42993c-.22021 7.52007-6.22021 13.46007-13.53003 14.45007a7.18347 7.18347 0 0 0 -1.97-3.55993l-5.2402-5.23007-5.23 5.2301a7.30287 7.30287 0 0 0 -2 3.7h-15.84984l-5.01-5.01-3.99 3.98a20.84714 20.84714 0 1 1 17.01-37.66992 12.94265 12.94265 0 0 1 8.24-4.56006 12.7785 12.7785 0 0 1 1.76-.12 13.02311 13.02311 0 0 1 13.02 13.02991c0 .15015 0 .29-.01.44007a15.04545 15.04545 0 0 1 12.8 15.31994z"/><path  d="m33.68263 87.71a7.40339 7.40339 0 1 1 -10.47-10.47l1.25-1.25 3.99-3.98 5.01 5.01.22.22a7.38768 7.38768 0 0 1 0 10.47z"/><path  d="m61.78273 83.79a7.405 7.405 0 0 1 -12.64014-5.23 6.67674 6.67674 0 0 1 .16993-1.54 7.30287 7.30287 0 0 1 2-3.7l5.23-5.2301 5.24023 5.2301a7.18347 7.18347 0 0 1 1.97 3.55993 7.39793 7.39793 0 0 1 -1.97002 6.91007z"/></g></svg>