<svg viewBox="0 0 100 100" xmlns="http://www.w3.org/2000/svg"><g fill="none" stroke="white" stroke-linecap="round" stroke-linejoin="round" stroke-width="4"><path  d="m33.68263 87.71a7.40339 7.40339 0 1 1 -10.47-10.47l1.25-1.25 3.99-3.98 5.01 5.01.22.22a7.38768 7.38768 0 0 1 0 10.47z"/><path  d="m61.78273 83.79a7.405 7.405 0 0 1 -12.64014-5.23 6.67674 6.67674 0 0 1 .16993-1.54 7.30287 7.30287 0 0 1 2-3.7l5.23-5.2301 5.24023 5.2301a7.18347 7.18347 0 0 1 1.97 3.55993 7.39793 7.39793 0 0 1 -1.97002 6.91007z"/><path  d="m77.28273 62.42534c-.22021 7.52-6.22021 13.46-13.53 14.45a7.18381 7.18381 0 0 0 -1.97-3.56006l-5.24023-5.23-5.23 5.23a7.30421 7.30421 0 0 0 -2 3.70008h-15.84984l-5.01-5.01-3.99 3.98a20.84714 20.84714 0 1 1 17.01-37.67005 12.9436 12.9436 0 0 1 8.24-4.55993c.17993-.02.34986-.04993.53-.05994.40991-.04.81006-.06006 1.23-.06006a13.02321 13.02321 0 0 1 13.02 13.03c0 .1499 0 .29-.01.43994a15.10671 15.10671 0 0 1 10.07984 6.24c.22021.32007.44018.65.64013.99a14.966 14.966 0 0 1 2.0801 8.09002z"/><path  d="m89.68263 46.07524a22.13286 22.13286 0 0 1 -14.48 8.26c-.2-.34-.41992-.66992-.64013-.99a15.10671 15.10671 0 0 0 -10.07984-6.24c.01-.1499.01-.29.01-.43994a13.02321 13.02321 0 0 0 -13.02-13.03c-.41992 0-.82007.02-1.23.06006-.02-.19006-.02-.38013-.03-.57007a22.11037 22.11037 0 0 1 28.60987-21.8 1.18442 1.18442 0 0 1 .14013 2.22 16.11006 16.11006 0 0 0 6.1499 31 15.56287 15.56287 0 0 0 3.38013-.35986 1.19025 1.19025 0 0 1 1.18994 1.88981z"/></g></svg>