<svg viewBox="0 0 100 100" xmlns="http://www.w3.org/2000/svg"><g fill="none" stroke="white" stroke-linecap="round" stroke-linejoin="round" stroke-width="4"><path  d="m92.69213 40.82007c-.24 8.24-7.41992 14.58984-15.66992 14.58984h-1.15992a15.07566 15.07566 0 0 0 -12.38012-11.29991c.01-.15.01-.28992.01-.44007a13.02118 13.02118 0 0 0 -23.02-8.34985 20.9886 20.9886 0 0 0 -15.46-2.67017 20.92654 20.92654 0 0 1 31.87014-15.93991 13.02125 13.02125 0 0 1 23.02 8.3501c0 .1499 0 .28992-.01025.43994a15.05649 15.05649 0 0 1 12.80007 15.32003z"/><path  d="m76.28222 59.42993c-.24 8.24-7.41993 14.59009-15.66993 14.59009h-6.10009l3.41015-3.46h-12.23022l6.13012-13.43002h-15.82006l-6.64991 16.87c-10.65014-.37-19.85009-8.38-20.76-19.05a20.92678 20.92678 0 0 1 16.41993-22.3 20.9886 20.9886 0 0 1 15.46 2.67017 13.02118 13.02118 0 0 1 23.02 8.34985c0 .15015 0 .29-.01.44007a15.07566 15.07566 0 0 1 12.38008 11.29982 15.2523 15.2523 0 0 1 .41993 4.02002z"/><path  d="m57.922 70.56-3.41 3.46-19.17 19.48 5-15.9h-12.41l1.42-3.6 6.65-16.87h15.82l-6.13 13.43z"/></g></svg>