<svg viewBox="0 0 100 100" xmlns="http://www.w3.org/2000/svg"><g fill="none" stroke="white" stroke-linecap="round" stroke-linejoin="round" stroke-width="4"><path  d="m38.29349 45.759v8.482a4.36084 4.36084 0 0 0 2.18042 3.7766l7.34567 4.241a4.36084 4.36084 0 0 0 4.36084 0l7.34567-4.241a4.36084 4.36084 0 0 0 2.18042-3.7766v-8.482a4.36084 4.36084 0 0 0 -2.18042-3.7766l-7.34567-4.241a4.36084 4.36084 0 0 0 -4.36084 0l-7.34567 4.241a4.36084 4.36084 0 0 0 -2.18042 3.7766z"/><path  d="m50 29.20702-8.52998-8.52998"/><path  d="m50.00001 29.20702 8.52998-8.52998"/><path  d="m50 70.79298-8.52998 8.52998"/><path  d="m50.00001 70.79298 8.52998 8.52998"/><path  d="m31.95478 39.66955-11.64065 3.16486"/><path  d="m31.95478 39.66954-3.16485-11.64065"/><path  d="m68.04521 60.33046 3.16486 11.64065"/><path  d="m68.04522 60.33045 11.64065-3.16486"/><path  d="m67.94881 39.50294 3.05696-11.66944"/><path  d="m67.94882 39.50296 11.66944 3.05696"/><path  d="m32.05117 60.49704-11.66945-3.05696"/><path  d="m32.05118 60.49706-3.05697 11.66944"/><path  d="m50 37.15711v-20.09621"/><path  d="m50 62.84289v20.09621"/><path  d="m38.85511 43.61983-17.44136-9.98475"/><path  d="m61.14509 56.3803 17.44114 9.98464"/><path  d="m61.08451 43.51741 17.349-10.14627"/><path  d="m38.91616 56.48217-17.34971 10.14667"/></g></svg>